<svg width="180.000000" height="200.000000" viewBox="0 0 180 200" fill="none" xmlns="http://www.w3.org/2000/svg" xmlns:xlink="http://www.w3.org/1999/xlink">
	<desc>
	</desc>
	<defs>
		<clipPath id="clip4_7">
			<rect id="ghonse" width="180.000000" height="200.000000" fill="white" fill-opacity="0"/>
		</clipPath>
	</defs>
	<g clip-path="url(#clip4_7)">
		<path id="svg_81" d="M164.89 129.22L164.89 84.31C164.89 44.03 132.24 11.38 91.96 11.38C51.68 11.38 18.33 43.97 18.33 84.25L14.66 131.92L19.03 131.84L14.66 131.92L13.25 146.98L13.25 178.51L35.37 162.75L60.08 185.81L90.2 162.99L120.79 188.87L149.25 162.99L164.91 176.48L171.61 162.28L171.61 129.11L164.89 129.22Z" fill="#FFFFFF" fill-opacity="1.000000" fill-rule="nonzero"/>
		<path id="svg_82" d="M66.76 109.92C54.44 110.47 44.14 99.89 45.02 87.58C45.28 83.99 45.3 83.9 48.79 84.7C57.97 86.8 67.14 88.97 76.31 91.12C79.3 91.82 82.28 92.59 85.3 93.2C86.52 93.45 86.54 93.93 86.24 94.95C83.72 103.5 75.93 109.51 66.76 109.92Z" fill="#33276A" fill-opacity="1.000000" fill-rule="nonzero"/>
		<path id="svg_83" d="M143.89 88.46C143.89 99.25 136.11 108.34 126.08 109.71C115.4 111.17 105.6 104.96 102.63 94.91C102.31 93.84 102.47 93.44 103.6 93.18C113.36 90.94 123.11 88.63 132.86 86.35C135.89 85.64 138.96 85 141.98 84.21C143.19 83.89 143.53 84.39 143.64 85.37C143.75 86.56 143.84 87.75 143.89 88.46Z" fill="#33276A" fill-opacity="1.000000" fill-rule="nonzero"/>
		<path id="svg_84" d="M91.59 1.49C45.21 1.49 7.6 39.09 7.6 85.47L7.6 170.35L7.6 181.32C7.6 186.32 13.67 188.8 17.18 185.25L27.31 174.98C29.5 172.76 33.08 172.76 35.27 174.98L56.8 196.81C58.99 199.03 62.57 199.03 64.76 196.81L86.29 174.98C88.48 172.76 92.06 172.76 94.25 174.98L115.78 196.81C117.97 199.03 121.55 199.03 123.74 196.81L145.27 174.98C147.46 172.76 151.03 172.76 153.23 174.98L166 187.93C169.51 191.49 175.57 189 175.57 184.01L175.57 85.48C175.57 39.09 137.97 1.49 91.59 1.49ZM164.53 91.8L164.53 151.82C164.53 156.8 158.5 159.28 154.99 155.77L152.53 153.31C150.35 151.13 146.81 151.13 144.62 153.31L123.46 174.47C121.28 176.65 117.74 176.65 115.55 174.47L92.97 151.89C90.79 149.71 87.25 149.71 85.06 151.89L64.53 172.42C62.35 174.6 58.81 174.6 56.62 172.42L37.34 153.14C35.16 150.97 31.63 150.97 29.44 153.14L28.19 154.39C24.67 157.92 18.65 155.42 18.65 150.45L18.65 86.27C18.65 45.99 51.3 13.34 91.58 13.34C131.86 13.34 164.51 45.99 164.51 86.27L164.53 91.8Z" fill="#19132E" fill-opacity="1.000000" fill-rule="nonzero"/>
	</g>
</svg>
